<svg id="visual" viewBox="0 0 900 600" width="900" height="600" xmlns="http://www.w3.org/2000/svg" xmlns:xlink="http://www.w3.org/1999/xlink" version="1.1"><rect width="900" height="600" fill="#001829"></rect><g><g transform="translate(699 167)"><path d="M0 -114.9L67.6 -93L109.3 -35.5L109.3 35.5L67.6 93L0 114.9L-67.6 93L-109.3 35.5L-109.3 -35.5L-67.6 -93Z" fill="none" stroke="#297EA6" stroke-width="2"></path></g><g transform="translate(7 151)"><path d="M0 -51L30 -41.3L48.5 -15.8L48.5 15.8L30 41.3L0 51L-30 41.3L-48.5 15.8L-48.5 -15.8L-30 -41.3Z" fill="none" stroke="#297EA6" stroke-width="2"></path></g><g transform="translate(188 466)"><path d="M0 -113L66.4 -91.4L107.5 -34.9L107.5 34.9L66.4 91.4L0 113L-66.4 91.4L-107.5 34.9L-107.5 -34.9L-66.4 -91.4Z" fill="none" stroke="#297EA6" stroke-width="2"></path></g></g></svg>