<svg id="visual" viewBox="0 0 900 600" width="900" height="600" xmlns="http://www.w3.org/2000/svg" xmlns:xlink="http://www.w3.org/1999/xlink" version="1.1"><rect width="900" height="600" fill="#001829"></rect><g><g transform="translate(897 543)"><path d="M0 -120.8L71 -97.7L114.8 -37.3L114.8 37.3L71 97.7L0 120.8L-71 97.7L-114.8 37.3L-114.8 -37.3L-71 -97.7Z" fill="none" stroke="#297EA6" stroke-width="2"></path></g><g transform="translate(488 301)"><path d="M0 -115L67.6 -93L109.4 -35.5L109.4 35.5L67.6 93L0 115L-67.6 93L-109.4 35.5L-109.4 -35.5L-67.6 -93Z" fill="none" stroke="#297EA6" stroke-width="2"></path></g><g transform="translate(745 82)"><path d="M0 -67L39.4 -54.2L63.7 -20.7L63.7 20.7L39.4 54.2L0 67L-39.4 54.2L-63.7 20.7L-63.7 -20.7L-39.4 -54.2Z" stroke="#297EA6" fill="none" stroke-width="2"></path></g><g transform="translate(875 299)"><path d="M0 -80L47 -64.7L76.1 -24.7L76.1 24.7L47 64.7L0 80L-47 64.7L-76.1 24.7L-76.1 -24.7L-47 -64.7Z" stroke="#297EA6" fill="none" stroke-width="2"></path></g><g transform="translate(192 546)"><path d="M0 -80L47 -64.7L76.1 -24.7L76.1 24.7L47 64.7L0 80L-47 64.7L-76.1 24.7L-76.1 -24.7L-47 -64.7Z" stroke="#297EA6" fill="none" stroke-width="2"></path></g></g></svg>