<?xml version="1.0" encoding="UTF-8" standalone="no"?>
<svg
   id="visual"
   viewBox="0 0 900 600"
   width="900"
   height="600"
   version="1.1"
   sodipodi:docname="polygon-scatter-haikei (1).svg"
   inkscape:version="1.1.1 (3bf5ae0d25, 2021-09-20)"
   xmlns:inkscape="http://www.inkscape.org/namespaces/inkscape"
   xmlns:sodipodi="http://sodipodi.sourceforge.net/DTD/sodipodi-0.dtd"
   xmlns="http://www.w3.org/2000/svg"
   xmlns:svg="http://www.w3.org/2000/svg">
  <defs
     id="defs29" />
  <sodipodi:namedview
     id="namedview27"
     pagecolor="#ffffff"
     bordercolor="#999999"
     borderopacity="1"
     inkscape:pageshadow="0"
     inkscape:pageopacity="0"
     inkscape:pagecheckerboard="0"
     showgrid="false"
     inkscape:zoom="1.1533333"
     inkscape:cx="450.43353"
     inkscape:cy="508.52601"
     inkscape:window-width="1600"
     inkscape:window-height="877"
     inkscape:window-x="-8"
     inkscape:window-y="-8"
     inkscape:window-maximized="1"
     inkscape:current-layer="visual" />
  <rect
     width="900"
     height="600"
     fill="#001829"
     id="rect2"
     x="0"
     y="-600"
     transform="scale(1,-1)" />
  <path
     d="m 31.21387,-7.58382 25.9,8.4 15.9,22 v 27.2 l -15.9,22 -25.9,8.4 -25.9,-8.4 -15.9,-22 v -27.2 l 15.9,-22 z"
     fill="none"
     stroke="#297ea6"
     stroke-width="2"
     id="path8" />
  <g
     id="g24">
    <g
       transform="translate(823 597)"
       id="g6" />
    <g
       transform="translate(162 423)"
       id="g10" />
    <g
       transform="translate(7 471)"
       id="g14" />
    <g
       transform="translate(867 95)"
       id="g18">
      <path
         d="M0 -32L18.8 -25.9L30.4 -9.9L30.4 9.9L18.8 25.9L0 32L-18.8 25.9L-30.4 9.9L-30.4 -9.9L-18.8 -25.9Z"
         stroke="#297EA6"
         fill="none"
         stroke-width="2"
         id="path16" />
    </g>
    <g
       transform="translate(713 12)"
       id="g22">
      <path
         d="M0 -57L33.5 -46.1L54.2 -17.6L54.2 17.6L33.5 46.1L0 57L-33.5 46.1L-54.2 17.6L-54.2 -17.6L-33.5 -46.1Z"
         stroke="#297EA6"
         fill="none"
         stroke-width="2"
         id="path20" />
    </g>
  </g>
</svg>
