<svg id="visual" viewBox="0 0 900 600" width="900" height="600" xmlns="http://www.w3.org/2000/svg" xmlns:xlink="http://www.w3.org/1999/xlink" version="1.1"><rect width="900" height="600" fill="#001829"></rect><g><g transform="translate(823 597)"><path d="M0 -65.7L38.6 -53.1L62.5 -20.3L62.5 20.3L38.6 53.1L0 65.7L-38.6 53.1L-62.5 20.3L-62.5 -20.3L-38.6 -53.1Z" fill="none" stroke="#297EA6" stroke-width="2"></path></g><g transform="translate(162 423)"><path d="M0 -44L25.9 -35.6L41.8 -13.6L41.8 13.6L25.9 35.6L0 44L-25.9 35.6L-41.8 13.6L-41.8 -13.6L-25.9 -35.6Z" fill="none" stroke="#297EA6" stroke-width="2"></path></g><g transform="translate(7 471)"><path d="M0 -50L29.4 -40.5L47.6 -15.5L47.6 15.5L29.4 40.5L0 50L-29.4 40.5L-47.6 15.5L-47.6 -15.5L-29.4 -40.5Z" fill="none" stroke="#297EA6" stroke-width="2"></path></g><g transform="translate(867 95)"><path d="M0 -32L18.8 -25.9L30.4 -9.9L30.4 9.9L18.8 25.9L0 32L-18.8 25.9L-30.4 9.9L-30.4 -9.9L-18.8 -25.9Z" stroke="#297EA6" fill="none" stroke-width="2"></path></g><g transform="translate(713 12)"><path d="M0 -57L33.5 -46.1L54.2 -17.6L54.2 17.6L33.5 46.1L0 57L-33.5 46.1L-54.2 17.6L-54.2 -17.6L-33.5 -46.1Z" stroke="#297EA6" fill="none" stroke-width="2"></path></g></g></svg>