<svg id="visual" viewBox="0 0 900 600" width="900" height="600" xmlns="http://www.w3.org/2000/svg" xmlns:xlink="http://www.w3.org/1999/xlink" version="1.1"><rect width="900" height="600" fill="#001829"></rect><g><g transform="translate(34 92)"><path d="M0 -65.7L38.6 -53.1L62.5 -20.3L62.5 20.3L38.6 53.1L0 65.7L-38.6 53.1L-62.5 20.3L-62.5 -20.3L-38.6 -53.1Z" fill="none" stroke="#297EA6" stroke-width="2"></path></g><g transform="translate(814 271)"><path d="M0 -57L33.5 -46.1L54.2 -17.6L54.2 17.6L33.5 46.1L0 57L-33.5 46.1L-54.2 17.6L-54.2 -17.6L-33.5 -46.1Z" fill="none" stroke="#297EA6" stroke-width="2"></path></g><g transform="translate(206 327)"><path d="M0 -60L35.3 -48.5L57.1 -18.5L57.1 18.5L35.3 48.5L0 60L-35.3 48.5L-57.1 18.5L-57.1 -18.5L-35.3 -48.5Z" fill="none" stroke="#297EA6" stroke-width="2"></path></g><g transform="translate(564 186)"><path d="M0 -54L31.7 -43.7L51.4 -16.7L51.4 16.7L31.7 43.7L0 54L-31.7 43.7L-51.4 16.7L-51.4 -16.7L-31.7 -43.7Z" stroke="#297EA6" fill="none" stroke-width="2"></path></g><g transform="translate(817 501)"><path d="M0 -47L27.6 -38L44.7 -14.5L44.7 14.5L27.6 38L0 47L-27.6 38L-44.7 14.5L-44.7 -14.5L-27.6 -38Z" stroke="#297EA6" fill="none" stroke-width="2"></path></g></g></svg>